<svg width="36" height="36" viewBox="0 0 36 36" fill="none" xmlns="http://www.w3.org/2000/svg">
<path d="M22.5 11.25C22.5 10.9516 22.6185 10.6655 22.8295 10.4545C23.0405 10.2435 23.3266 10.125 23.625 10.125H32.625C32.9234 10.125 33.2095 10.2435 33.4205 10.4545C33.6315 10.6655 33.75 10.9516 33.75 11.25C33.75 11.5484 33.6315 11.8345 33.4205 12.0455C33.2095 12.2565 32.9234 12.375 32.625 12.375H23.625C23.3266 12.375 23.0405 12.2565 22.8295 12.0455C22.6185 11.8345 22.5 11.5484 22.5 11.25ZM19.125 22.2188C19.125 23.7852 18.5027 25.2875 17.3951 26.3951C16.2875 27.5027 14.7852 28.125 13.2188 28.125H4.5C4.20163 28.125 3.91548 28.0065 3.7045 27.7955C3.49353 27.5845 3.375 27.2984 3.375 27V9C3.375 8.70163 3.49353 8.41548 3.7045 8.20451C3.91548 7.99353 4.20163 7.875 4.5 7.875H12.6562C13.7322 7.87615 14.7828 8.20208 15.6705 8.81015C16.5582 9.41823 17.2416 10.2801 17.6314 11.283C18.0212 12.2859 18.0991 13.3831 17.855 14.4311C17.6109 15.479 17.0561 16.4288 16.2633 17.1562C17.1365 17.6815 17.8589 18.4238 18.3604 19.3109C18.8618 20.198 19.1252 21.1997 19.125 22.2188ZM5.625 16.3125H12.6562C13.4768 16.3125 14.2637 15.9866 14.8439 15.4064C15.4241 14.8262 15.75 14.0393 15.75 13.2188C15.75 12.3982 15.4241 11.6113 14.8439 11.0311C14.2637 10.4509 13.4768 10.125 12.6562 10.125H5.625V16.3125ZM16.875 22.2188C16.875 21.7386 16.7804 21.2632 16.5967 20.8196C16.4129 20.376 16.1436 19.9729 15.8041 19.6334C15.4646 19.2939 15.0615 19.0246 14.6179 18.8408C14.1743 18.6571 13.6989 18.5625 13.2188 18.5625H5.625V25.875H13.2188C13.6989 25.875 14.1743 25.7804 14.6179 25.5967C15.0615 25.4129 15.4646 25.1436 15.8041 24.8041C16.1436 24.4646 16.4129 24.0615 16.5967 23.6179C16.7804 23.1743 16.875 22.6989 16.875 22.2188ZM34.875 21.375C34.875 21.6734 34.7565 21.9595 34.5455 22.1705C34.3345 22.3815 34.0484 22.5 33.75 22.5H23.7656C23.9774 23.3209 24.4168 24.0653 25.0331 24.6474C25.6494 25.2295 26.4176 25.6256 27.2493 25.7902C28.0809 25.9548 28.9421 25.8811 29.7337 25.5777C30.5253 25.2742 31.2151 24.7533 31.7236 24.075C31.8123 23.9568 31.9235 23.8573 32.0507 23.782C32.1779 23.7068 32.3187 23.6573 32.465 23.6365C32.6113 23.6157 32.7603 23.6239 32.9034 23.6606C33.0466 23.6974 33.1811 23.762 33.2993 23.8507C33.4175 23.9394 33.517 24.0506 33.5923 24.1778C33.6675 24.305 33.717 24.4458 33.7378 24.5921C33.7586 24.7384 33.7504 24.8874 33.7137 25.0306C33.6769 25.1737 33.6123 25.3082 33.5236 25.4264C32.5615 26.7082 31.1747 27.6059 29.6114 27.9588C28.048 28.3118 26.4101 28.0969 24.9906 27.3527C23.5712 26.6084 22.4629 25.3834 21.864 23.8968C21.2651 22.4102 21.2147 20.759 21.7218 19.2387C22.229 17.7183 23.2605 16.428 24.632 15.5986C26.0034 14.7692 27.6252 14.4549 29.2072 14.7118C30.7891 14.9688 32.2281 15.7803 33.2665 17.001C34.3049 18.2218 34.8751 19.7723 34.875 21.375ZM32.4844 20.25C32.2365 19.282 31.6736 18.4241 30.8843 17.8114C30.095 17.1987 29.1242 16.8662 28.125 16.8662C27.1258 16.8662 26.155 17.1987 25.3657 17.8114C24.5764 18.4241 24.0135 19.282 23.7656 20.25H32.4844Z" fill="white"/>
</svg>
