<svg width="36" height="36" viewBox="0 0 36 36" fill="none" xmlns="http://www.w3.org/2000/svg">
<path d="M29.2936 10.6425C29.6375 9.53326 29.7478 8.36479 29.6176 7.21078C29.4873 6.05677 29.1194 4.94226 28.537 3.93752C28.4383 3.76646 28.2962 3.62442 28.1251 3.52568C27.9541 3.42694 27.76 3.37497 27.5625 3.37502C26.2521 3.37228 24.9593 3.67605 23.7873 4.26206C22.6152 4.84807 21.5965 5.70008 20.8125 6.75002H17.4375C16.6535 5.70008 15.6348 4.84807 14.4627 4.26206C13.2907 3.67605 11.9979 3.37228 10.6875 3.37502C10.49 3.37497 10.2959 3.42694 10.1249 3.52568C9.95379 3.62442 9.81173 3.76646 9.71297 3.93752C9.13057 4.94226 8.76266 6.05677 8.63245 7.21078C8.50223 8.36479 8.61254 9.53326 8.95641 10.6425C8.26134 11.8557 7.88901 13.2269 7.875 14.625V15.75C7.87737 17.6535 8.56838 19.4919 9.82044 20.9257C11.0725 22.3594 12.801 23.2918 14.6869 23.5505C13.9171 24.5355 13.4993 25.7499 13.5 27V28.125H10.125C9.22989 28.125 8.37145 27.7694 7.73851 27.1365C7.10558 26.5036 6.75 25.6451 6.75 24.75C6.75 24.0113 6.60451 23.2799 6.32182 22.5974C6.03914 21.915 5.62481 21.2949 5.10248 20.7725C4.58015 20.2502 3.96005 19.8359 3.27759 19.5532C2.59514 19.2705 1.86369 19.125 1.125 19.125C0.826631 19.125 0.540483 19.2435 0.329505 19.4545C0.118526 19.6655 0 19.9516 0 20.25C0 20.5484 0.118526 20.8345 0.329505 21.0455C0.540483 21.2565 0.826631 21.375 1.125 21.375C2.02011 21.375 2.87855 21.7306 3.51149 22.3635C4.14442 22.9965 4.5 23.8549 4.5 24.75C4.5 26.2419 5.09263 27.6726 6.14752 28.7275C7.20242 29.7824 8.63316 30.375 10.125 30.375H13.5V32.625C13.5 32.9234 13.6185 33.2095 13.8295 33.4205C14.0405 33.6315 14.3266 33.75 14.625 33.75C14.9234 33.75 15.2095 33.6315 15.4205 33.4205C15.6315 33.2095 15.75 32.9234 15.75 32.625V27C15.75 26.1049 16.1056 25.2465 16.7385 24.6135C17.3714 23.9806 18.2299 23.625 19.125 23.625C20.0201 23.625 20.8786 23.9806 21.5115 24.6135C22.1444 25.2465 22.5 26.1049 22.5 27V32.625C22.5 32.9234 22.6185 33.2095 22.8295 33.4205C23.0405 33.6315 23.3266 33.75 23.625 33.75C23.9234 33.75 24.2095 33.6315 24.4205 33.4205C24.6315 33.2095 24.75 32.9234 24.75 32.625V27C24.7507 25.7499 24.3329 24.5355 23.5631 23.5505C25.449 23.2918 27.1775 22.3594 28.4296 20.9257C29.6816 19.4919 30.3726 17.6535 30.375 15.75V14.625C30.361 13.2269 29.9887 11.8557 29.2936 10.6425ZM28.125 15.75C28.125 17.2419 27.5324 18.6726 26.4775 19.7275C25.4226 20.7824 23.9918 21.375 22.5 21.375H15.75C14.2582 21.375 12.8274 20.7824 11.7725 19.7275C10.7176 18.6726 10.125 17.2419 10.125 15.75V14.625C10.1388 13.5001 10.4756 12.4028 11.0953 11.4638C11.2108 11.3115 11.2857 11.1323 11.3127 10.9431C11.3398 10.7539 11.3182 10.5609 11.25 10.3824C10.957 9.62664 10.8159 8.82052 10.835 8.0102C10.8541 7.19988 11.0328 6.40128 11.3611 5.66017C12.2818 5.75922 13.1684 6.06421 13.9552 6.55254C14.7419 7.04087 15.4087 7.70001 15.9061 8.48111C16.0074 8.6396 16.1469 8.77015 16.3118 8.8608C16.4766 8.95145 16.6616 8.99932 16.8497 9.00002H21.3989C21.5877 9.00002 21.7735 8.9525 21.9392 8.86181C22.1048 8.77113 22.245 8.6402 22.3467 8.48111C22.844 7.69994 23.5108 7.04075 24.2976 6.55241C25.0844 6.06407 25.971 5.75912 26.8917 5.66017C27.2195 6.40147 27.3978 7.20016 27.4164 8.01048C27.435 8.8208 27.2935 9.62682 27 10.3824C26.932 10.5592 26.9093 10.7502 26.9338 10.9381C26.9584 11.126 27.0295 11.3047 27.1406 11.4581C27.7665 12.3971 28.1083 13.4967 28.125 14.625V15.75Z" fill="white"/>
</svg>
